<svg xmlns="http://www.w3.org/2000/svg" viewBox="0 0 600 400" fill="none">
  <defs>
    <linearGradient id="bgGradient" x1="0%" y1="0%" x2="100%" y2="100%">
      <stop offset="0%" style="stop-color:#06b6d4;stop-opacity:1" />
      <stop offset="50%" style="stop-color:#8b5cf6;stop-opacity:1" />
      <stop offset="100%" style="stop-color:#1e3a8a;stop-opacity:1" />
    </linearGradient>
    <linearGradient id="personGradient1" x1="0%" y1="0%" x2="100%" y2="100%">
      <stop offset="0%" style="stop-color:#10b981;stop-opacity:1" />
      <stop offset="100%" style="stop-color:#047857;stop-opacity:1" />
    </linearGradient>
    <linearGradient id="personGradient2" x1="0%" y1="0%" x2="100%" y2="100%">
      <stop offset="0%" style="stop-color:#f59e0b;stop-opacity:1" />
      <stop offset="100%" style="stop-color:#d97706;stop-opacity:1" />
    </linearGradient>
    <linearGradient id="personGradient3" x1="0%" y1="0%" x2="100%" y2="100%">
      <stop offset="0%" style="stop-color:#ef4444;stop-opacity:1" />
      <stop offset="100%" style="stop-color:#dc2626;stop-opacity:1" />
    </linearGradient>
  </defs>
  
  <!-- Background -->
  <rect width="600" height="400" fill="url(#bgGradient)"/>
  
  <!-- Office building silhouette -->
  <rect x="0" y="200" width="600" height="200" fill="#1f2937" opacity="0.3"/>
  <rect x="50" y="150" width="80" height="250" fill="#374151" opacity="0.6"/>
  <rect x="150" y="120" width="80" height="280" fill="#374151" opacity="0.6"/>
  <rect x="250" y="100" width="80" height="300" fill="#374151" opacity="0.6"/>
  <rect x="350" y="130" width="80" height="270" fill="#374151" opacity="0.6"/>
  <rect x="450" y="140" width="80" height="260" fill="#374151" opacity="0.6"/>
  
  <!-- Windows with lights -->
  <rect x="60" y="170" width="15" height="20" fill="#fbbf24" opacity="0.8"/>
  <rect x="80" y="170" width="15" height="20" fill="#fbbf24" opacity="0.8"/>
  <rect x="160" y="140" width="15" height="20" fill="#fbbf24" opacity="0.8"/>
  <rect x="180" y="140" width="15" height="20" fill="#fbbf24" opacity="0.8"/>
  <rect x="260" y="120" width="15" height="20" fill="#fbbf24" opacity="0.8"/>
  <rect x="280" y="120" width="15" height="20" fill="#fbbf24" opacity="0.8"/>
  
  <!-- Team members -->
  <!-- Person 1 (left) -->
  <g transform="translate(100, 250)">
    <circle cx="30" cy="20" r="15" fill="#fbbf24"/>
    <rect x="20" y="35" width="20" height="40" rx="10" fill="url(#personGradient1)"/>
    <rect x="15" y="75" width="30" height="25" rx="5" fill="#374151"/>
    <rect x="10" y="100" width="40" height="8" rx="4" fill="#6b7280"/>
  </g>
  
  <!-- Person 2 (center) -->
  <g transform="translate(280, 240)">
    <circle cx="30" cy="20" r="15" fill="#fbbf24"/>
    <rect x="20" y="35" width="20" height="40" rx="10" fill="url(#personGradient2)"/>
    <rect x="15" y="75" width="30" height="25" rx="5" fill="#374151"/>
    <rect x="10" y="100" width="40" height="8" rx="4" fill="#6b7280"/>
    <!-- Laptop -->
    <rect x="45" y="50" width="25" height="15" rx="2" fill="#1f2937"/>
    <rect x="47" y="52" width="21" height="11" rx="1" fill="#3b82f6" opacity="0.8"/>
  </g>
  
  <!-- Person 3 (right) -->
  <g transform="translate(450, 250)">
    <circle cx="30" cy="20" r="15" fill="#fbbf24"/>
    <rect x="20" y="35" width="20" height="40" rx="10" fill="url(#personGradient3)"/>
    <rect x="15" y="75" width="30" height="25" rx="5" fill="#374151"/>
    <rect x="10" y="100" width="40" height="8" rx="4" fill="#6b7280"/>
    <!-- Documents -->
    <rect x="45" y="60" width="20" height="25" rx="2" fill="#ffffff" opacity="0.9"/>
    <rect x="47" y="62" width="16" height="2" fill="#3b82f6"/>
    <rect x="47" y="66" width="12" height="2" fill="#6b7280"/>
    <rect x="47" y="70" width="14" height="2" fill="#6b7280"/>
  </g>
  
  <!-- Collaboration lines -->
  <line x1="150" y1="280" x2="280" y2="280" stroke="#fbbf24" stroke-width="3" opacity="0.6"/>
  <line x1="350" y1="280" x2="450" y2="280" stroke="#fbbf24" stroke-width="3" opacity="0.6"/>
  
  <!-- Floating icons -->
  <g transform="translate(50, 80)">
    <circle cx="0" cy="0" r="20" fill="#ffffff" opacity="0.9"/>
    <path d="M-8,-8 L8,8 M8,-8 L-8,8" stroke="#3b82f6" stroke-width="3"/>
  </g>
  
  <g transform="translate(500, 100)">
    <circle cx="0" cy="0" r="20" fill="#ffffff" opacity="0.9"/>
    <path d="M-10,-5 L10,-5 L0,10 Z" fill="#10b981"/>
  </g>
  
  <g transform="translate(200, 50)">
    <circle cx="0" cy="0" r="20" fill="#ffffff" opacity="0.9"/>
    <circle cx="0" cy="0" r="8" fill="none" stroke="#f59e0b" stroke-width="3"/>
    <path d="M0,-8 L5,5 L-5,5 Z" fill="#f59e0b"/>
  </g>
</svg>



