<svg xmlns="http://www.w3.org/2000/svg" viewBox="0 0 800 400" fill="none">
  <defs>
    <linearGradient id="skyGradient" x1="0%" y1="0%" x2="100%" y2="100%">
      <stop offset="0%" style="stop-color:#3b82f6;stop-opacity:1" />
      <stop offset="50%" style="stop-color:#8b5cf6;stop-opacity:1" />
      <stop offset="100%" style="stop-color:#1e40af;stop-opacity:1" />
    </linearGradient>
    <linearGradient id="roadGradient" x1="0%" y1="0%" x2="100%" y2="0%">
      <stop offset="0%" style="stop-color:#6b7280;stop-opacity:1" />
      <stop offset="50%" style="stop-color:#4b5563;stop-opacity:1" />
      <stop offset="100%" style="stop-color:#374151;stop-opacity:1" />
    </linearGradient>
  </defs>
  
  <!-- Sky background -->
  <rect width="800" height="300" fill="url(#skyGradient)"/>
  
  <!-- Mountains -->
  <path d="M0,200 L150,120 L300,180 L450,100 L600,160 L750,80 L800,140 L800,300 L0,300 Z" fill="#1f2937" opacity="0.8"/>
  
  <!-- Road -->
  <rect y="280" width="800" height="120" fill="url(#roadGradient)"/>
  <rect y="295" width="800" height="4" fill="#fbbf24"/>
  <rect y="305" width="800" height="2" fill="#fbbf24"/>
  <rect y="315" width="800" height="2" fill="#fbbf24"/>
  
  <!-- Bus -->
  <g transform="translate(100, 200)">
    <rect x="0" y="20" width="80" height="40" rx="8" fill="#ef4444"/>
    <rect x="10" y="25" width="60" height="30" rx="4" fill="#ffffff" opacity="0.9"/>
    <circle cx="20" cy="70" r="12" fill="#374151"/>
    <circle cx="60" cy="70" r="12" fill="#374151"/>
    <circle cx="20" cy="70" r="8" fill="#6b7280"/>
    <circle cx="60" cy="70" r="8" fill="#6b7280"/>
    <rect x="5" y="15" width="70" height="8" rx="4" fill="#1f2937"/>
  </g>
  
  <!-- Electric Car -->
  <g transform="translate(300, 220)">
    <rect x="0" y="10" width="60" height="25" rx="6" fill="#10b981"/>
    <rect x="8" y="15" width="44" height="15" rx="3" fill="#ffffff" opacity="0.9"/>
    <circle cx="15" cy="45" r="10" fill="#374151"/>
    <circle cx="45" cy="45" r="10" fill="#374151"/>
    <circle cx="15" cy="45" r="6" fill="#6b7280"/>
    <circle cx="45" cy="45" r="6" fill="#6b7280"/>
    <rect x="5" y="5" width="50" height="6" rx="3" fill="#1f2937"/>
    <!-- Electric symbol -->
    <path d="M30,20 L35,15 L40,20 L35,25 Z" fill="#fbbf24"/>
  </g>
  
  <!-- Bicycle -->
  <g transform="translate(500, 230)">
    <circle cx="20" cy="20" r="15" fill="none" stroke="#374151" stroke-width="3"/>
    <circle cx="50" cy="20" r="15" fill="none" stroke="#374151" stroke-width="3"/>
    <line x1="20" y1="20" x2="50" y2="20" stroke="#374151" stroke-width="3"/>
    <line x1="20" y1="20" x2="35" y2="5" stroke="#374151" stroke-width="3"/>
    <line x1="35" y1="5" x2="50" y2="20" stroke="#374151" stroke-width="3"/>
    <circle cx="20" cy="20" r="8" fill="#6b7280"/>
    <circle cx="50" cy="20" r="8" fill="#6b7280"/>
  </g>
  
  <!-- Train -->
  <g transform="translate(600, 210)">
    <rect x="0" y="15" width="100" height="35" rx="6" fill="#8b5cf6"/>
    <rect x="10" y="20" width="80" height="25" rx="4" fill="#ffffff" opacity="0.9"/>
    <circle cx="25" cy="60" r="12" fill="#374151"/>
    <circle cx="75" cy="60" r="12" fill="#374151"/>
    <circle cx="25" cy="60" r="8" fill="#6b7280"/>
    <circle cx="75" cy="60" r="8" fill="#6b7280"/>
    <rect x="5" y="10" width="90" height="8" rx="4" fill="#1f2937"/>
    <!-- Windows -->
    <rect x="15" y="22" width="15" height="10" rx="2" fill="#3b82f6" opacity="0.7"/>
    <rect x="35" y="22" width="15" height="10" rx="2" fill="#3b82f6" opacity="0.7"/>
    <rect x="55" y="22" width="15" height="10" rx="2" fill="#3b82f6" opacity="0.7"/>
  </g>
  
  <!-- Solar panels -->
  <g transform="translate(50, 50)">
    <rect x="0" y="0" width="40" height="20" fill="#1f2937"/>
    <rect x="2" y="2" width="36" height="16" fill="#fbbf24"/>
    <line x1="0" y1="10" x2="40" y2="10" stroke="#374151" stroke-width="1"/>
    <line x1="20" y1="2" x2="20" y2="18" stroke="#374151" stroke-width="1"/>
  </g>
  
  <!-- Wind turbine -->
  <g transform="translate(700, 80)">
    <line x1="0" y1="0" x2="0" y2="60" stroke="#6b7280" stroke-width="4"/>
    <circle cx="0" cy="0" r="3" fill="#374151"/>
    <path d="M0,0 L-20,-10 L-15,0 L-25,5 L-20,15 L-10,10 L-5,20 L5,15 L10,25 L15,15 L20,20 L25,10 L15,5 L20,-5 L10,0 L5,-10 Z" fill="#e5e7eb" opacity="0.8"/>
  </g>
  
  <!-- Cloud -->
  <g transform="translate(200, 60)">
    <ellipse cx="30" cy="20" rx="25" ry="15" fill="#ffffff" opacity="0.8"/>
    <ellipse cx="50" cy="25" rx="20" ry="12" fill="#ffffff" opacity="0.8"/>
    <ellipse cx="70" cy="20" rx="18" ry="10" fill="#ffffff" opacity="0.8"/>
  </g>
</svg>



